<?xml version="1.0" encoding="iso-8859-1"?>
<!-- Uploaded to: SVG Repo, www.svgrepo.com, Generator: SVG Repo Mixer Tools -->
<svg fill="#000000" height="800px" width="800px" version="1.1" id="Layer_1" xmlns="http://www.w3.org/2000/svg" xmlns:xlink="http://www.w3.org/1999/xlink" 
	 viewBox="0 0 512 512" xml:space="preserve">
<g>
	<g>
		<path d="M236.391,98.788c-4.512,0-8.17,3.658-8.17,8.17v16.34c0,4.512,3.658,8.17,8.17,8.17s8.17-3.658,8.17-8.17v-16.34
			C244.561,102.446,240.903,98.788,236.391,98.788z"/>
	</g>
</g>
<g>
	<g>
		<path d="M155.778,98.788c-4.512,0-8.17,3.658-8.17,8.17v16.34c0,4.512,3.658,8.17,8.17,8.17s8.17-3.658,8.17-8.17v-16.34
			C163.948,102.446,160.29,98.788,155.778,98.788z"/>
	</g>
</g>
<g>
	<g>
		<path d="M214.473,153.516c-4.369-1.129-8.827,1.495-9.957,5.863c-0.998,3.856-4.465,6.549-8.431,6.549
			c-3.965,0-7.433-2.693-8.431-6.549c-1.132-4.369-5.588-6.996-9.957-5.863c-4.368,1.131-6.993,5.588-5.862,9.957
			c2.862,11.067,12.834,18.796,24.248,18.796c11.414,0,21.385-7.729,24.25-18.796C221.466,159.105,218.84,154.646,214.473,153.516z"
			/>
	</g>
</g>
<g>
	<g>
		<path d="M287.421,288.234c-27.716-15.743-59.299-24.064-91.335-24.064c-102.115,0-185.191,83.077-185.191,185.191
			c0,4.512,3.658,8.17,8.17,8.17h234.218c4.512,0,8.17-3.658,8.17-8.17s-3.659-8.171-8.171-8.171H27.429
			c3.248-67.846,46.734-125.316,107.053-149.036c5.326,29.175,30.913,51.369,61.603,51.369c30.693,0,56.282-22.197,61.604-51.376
			c7.443,2.912,14.69,6.337,21.661,10.296c3.923,2.229,8.911,0.854,11.14-3.069C292.719,295.451,291.345,290.463,287.421,288.234z
			 M196.085,327.182c-23.503,0-42.958-17.608-45.899-40.324c14.601-4.13,29.994-6.349,45.899-6.349
			c15.578,0,31.029,2.178,45.897,6.366C239.033,309.582,219.581,327.182,196.085,327.182z"/>
	</g>
</g>
<g>
	<g>
		<path d="M196.085,0C133.615,0,82.791,50.823,82.791,113.294v21.787c0,62.471,50.823,113.294,113.294,113.294
			s113.294-50.823,113.294-113.294v-21.787C309.378,50.823,258.554,0,196.085,0z M293.038,135.081
			c0,53.46-43.493,96.953-96.953,96.953c-53.46,0-96.953-43.493-96.953-96.953v-21.787c0-53.46,43.493-96.953,96.953-96.953
			c53.46,0,96.953,43.493,96.953,96.953V135.081z"/>
	</g>
</g>
<g>
	<g>
		<path d="M383.999,277.787c-64.573,0-117.106,52.533-117.106,117.106S319.426,512,383.999,512s117.106-52.534,117.106-117.106
			S448.572,277.787,383.999,277.787z M375.829,495.327c-13.653-1.101-26.546-4.935-38.13-10.954l0.002-58.433h38.128V495.327z
			 M343.417,409.6l18.155-32.681h44.853l18.156,32.681H343.417z M370.65,360.579l13.349-24.028l13.348,24.028H370.65z
			 M392.17,495.327V425.94h38.128l0.001,58.433C418.714,490.393,405.823,494.226,392.17,495.327z M446.639,473.764l-0.001-55.994
			c0-1.389-0.354-2.754-1.028-3.967l-27.183-48.929c-0.009-0.016-0.017-0.032-0.026-0.048l-27.259-49.067
			c-1.441-2.594-4.176-4.203-7.142-4.203s-5.701,1.609-7.142,4.203l-27.259,49.067c-0.009,0.016-0.017,0.032-0.026,0.048
			l-27.183,48.929c-0.674,1.214-1.028,2.579-1.028,3.967l-0.002,55.994c-23.215-18.477-38.125-46.963-38.125-78.871
			c0-55.563,45.203-100.766,100.766-100.766c55.563,0,100.766,45.203,100.766,100.766
			C484.765,426.801,469.854,455.289,446.639,473.764z"/>
	</g>
</g>
</svg>